<mxfile host="app.diagrams.net" modified="2023-02-06T03:48:50.659Z" agent="5.0 (Windows NT 10.0; Win64; x64) AppleWebKit/537.36 (KHTML, like Gecko) Chrome/109.0.0.0 Safari/537.36" etag="870jXZ8c-U087AeZRBeS" version="20.8.13" type="github">
  <diagram name="Page-1" id="74e2e168-ea6b-b213-b513-2b3c1d86103e">
    <mxGraphModel dx="1050" dy="549" grid="1" gridSize="10" guides="1" tooltips="1" connect="1" arrows="1" fold="1" page="1" pageScale="1" pageWidth="1100" pageHeight="850" background="none" math="0" shadow="0">
      <root>
        <mxCell id="0" />
        <mxCell id="1" parent="0" />
        <mxCell id="mmImKOxBRJz25gbyXTxN-3" value="" style="edgeStyle=orthogonalEdgeStyle;rounded=0;orthogonalLoop=1;jettySize=auto;html=1;" edge="1" parent="1" source="mmImKOxBRJz25gbyXTxN-1" target="mmImKOxBRJz25gbyXTxN-2">
          <mxGeometry relative="1" as="geometry" />
        </mxCell>
        <mxCell id="mmImKOxBRJz25gbyXTxN-1" value="rabbtimq" style="rounded=0;whiteSpace=wrap;html=1;" vertex="1" parent="1">
          <mxGeometry x="530" y="180" width="120" height="60" as="geometry" />
        </mxCell>
        <mxCell id="mmImKOxBRJz25gbyXTxN-7" value="" style="edgeStyle=orthogonalEdgeStyle;rounded=0;orthogonalLoop=1;jettySize=auto;html=1;" edge="1" parent="1" source="mmImKOxBRJz25gbyXTxN-2" target="mmImKOxBRJz25gbyXTxN-6">
          <mxGeometry relative="1" as="geometry" />
        </mxCell>
        <mxCell id="mmImKOxBRJz25gbyXTxN-2" value="根据指定条数&amp;nbsp; 存储指定条数 调用方法计算" style="whiteSpace=wrap;html=1;rounded=0;" vertex="1" parent="1">
          <mxGeometry x="520" y="270" width="140" height="160" as="geometry" />
        </mxCell>
        <mxCell id="mmImKOxBRJz25gbyXTxN-5" style="edgeStyle=orthogonalEdgeStyle;rounded=0;orthogonalLoop=1;jettySize=auto;html=1;exitX=1;exitY=0.5;exitDx=0;exitDy=0;" edge="1" parent="1" source="mmImKOxBRJz25gbyXTxN-4" target="mmImKOxBRJz25gbyXTxN-2">
          <mxGeometry relative="1" as="geometry">
            <mxPoint x="380" y="350" as="targetPoint" />
          </mxGeometry>
        </mxCell>
        <mxCell id="mmImKOxBRJz25gbyXTxN-8" style="edgeStyle=orthogonalEdgeStyle;rounded=0;orthogonalLoop=1;jettySize=auto;html=1;entryX=0;entryY=0.5;entryDx=0;entryDy=0;" edge="1" parent="1" source="mmImKOxBRJz25gbyXTxN-4" target="mmImKOxBRJz25gbyXTxN-6">
          <mxGeometry relative="1" as="geometry">
            <Array as="points">
              <mxPoint x="430" y="390" />
              <mxPoint x="430" y="520" />
            </Array>
          </mxGeometry>
        </mxCell>
        <mxCell id="mmImKOxBRJz25gbyXTxN-16" style="edgeStyle=orthogonalEdgeStyle;rounded=0;orthogonalLoop=1;jettySize=auto;html=1;" edge="1" parent="1" source="mmImKOxBRJz25gbyXTxN-4" target="mmImKOxBRJz25gbyXTxN-15">
          <mxGeometry relative="1" as="geometry" />
        </mxCell>
        <mxCell id="mmImKOxBRJz25gbyXTxN-4" value="redis/数据库 获取各类数据需要的条数" style="rounded=0;whiteSpace=wrap;html=1;" vertex="1" parent="1">
          <mxGeometry x="210" y="360" width="120" height="60" as="geometry" />
        </mxCell>
        <mxCell id="mmImKOxBRJz25gbyXTxN-10" value="" style="edgeStyle=orthogonalEdgeStyle;rounded=0;orthogonalLoop=1;jettySize=auto;html=1;" edge="1" parent="1" source="mmImKOxBRJz25gbyXTxN-6" target="mmImKOxBRJz25gbyXTxN-9">
          <mxGeometry relative="1" as="geometry" />
        </mxCell>
        <mxCell id="mmImKOxBRJz25gbyXTxN-6" value="根据阈值判断是否异常，记录异常条数，根据条数比例，判断是否写入异常表" style="whiteSpace=wrap;html=1;rounded=0;" vertex="1" parent="1">
          <mxGeometry x="520" y="490" width="140" height="60" as="geometry" />
        </mxCell>
        <mxCell id="mmImKOxBRJz25gbyXTxN-9" value="写入异常表" style="whiteSpace=wrap;html=1;rounded=0;" vertex="1" parent="1">
          <mxGeometry x="530" y="600" width="120" height="60" as="geometry" />
        </mxCell>
        <mxCell id="mmImKOxBRJz25gbyXTxN-13" style="edgeStyle=orthogonalEdgeStyle;rounded=0;orthogonalLoop=1;jettySize=auto;html=1;" edge="1" parent="1" source="mmImKOxBRJz25gbyXTxN-11" target="mmImKOxBRJz25gbyXTxN-12">
          <mxGeometry relative="1" as="geometry" />
        </mxCell>
        <mxCell id="mmImKOxBRJz25gbyXTxN-11" value="阈值表" style="rounded=0;whiteSpace=wrap;html=1;" vertex="1" parent="1">
          <mxGeometry x="730" y="380" width="120" height="60" as="geometry" />
        </mxCell>
        <mxCell id="mmImKOxBRJz25gbyXTxN-14" style="edgeStyle=orthogonalEdgeStyle;rounded=0;orthogonalLoop=1;jettySize=auto;html=1;entryX=1;entryY=0.5;entryDx=0;entryDy=0;" edge="1" parent="1" source="mmImKOxBRJz25gbyXTxN-12" target="mmImKOxBRJz25gbyXTxN-6">
          <mxGeometry relative="1" as="geometry" />
        </mxCell>
        <mxCell id="mmImKOxBRJz25gbyXTxN-12" value="静息状态判断表" style="rounded=0;whiteSpace=wrap;html=1;" vertex="1" parent="1">
          <mxGeometry x="730" y="490" width="120" height="60" as="geometry" />
        </mxCell>
        <mxCell id="mmImKOxBRJz25gbyXTxN-15" value="根据时间判断出条数" style="whiteSpace=wrap;html=1;rounded=0;" vertex="1" parent="1">
          <mxGeometry x="210" y="480" width="120" height="60" as="geometry" />
        </mxCell>
        <mxCell id="mmImKOxBRJz25gbyXTxN-17" value="配置：&lt;br&gt;手表每五分钟传递&lt;br&gt;脑机每20毫秒传递" style="rounded=0;whiteSpace=wrap;html=1;" vertex="1" parent="1">
          <mxGeometry x="280" y="240" width="120" height="60" as="geometry" />
        </mxCell>
      </root>
    </mxGraphModel>
  </diagram>
</mxfile>
